<?xml version="1.0" encoding="UTF-8"?>
<svg xmlns="http://www.w3.org/2000/svg" version="1.1" viewBox="0 0 612 603.57">
  <defs>
    <style>
      .cls-1 {
        fill: #f6f6f6;
      }

      .cls-2 {
        fill: #1f132d;
      }
    </style>
  </defs>
  <!-- Generator: Adobe Illustrator 28.7.1, SVG Export Plug-In . SVG Version: 1.2.0 Build 142)  -->
  <g>
    <g id="Camada_1">
      <path class="cls-1" d="M569.76,291.46c-4.09-3.2-8.45-6.22-13.09-8.51-6.53-3.22-12.64-7.17-18.81-10.89-10.76-6.49-21.6-12.88-32.49-19.09-11.13-6.35-22.07-13.09-33.49-18.95-3.16-1.62-3.5-3.96-2.5-6.8,4.39-12.39,7.28-25.21,10.53-37.9,2.23-8.7,4.33-17.49,6.81-26.08,3.96-13.72,7.28-27.59,11-41.36,3.23-11.92-7.15-19.33-17.44-17.12-10.43,2.24-20.62,5.32-30.92,8.01-7.71,2.01-15.33,4.43-23.14,6.15-6.95,1.53-13.86,3.36-20.64,5.5-9.79,3.08-19.7,5.73-29.67,8.14-2.44.59-4.98.72-6.47-1.91-4.39-7.76-8.65-15.58-13.07-23.32-3.49-6.1-6.9-12.23-10.29-18.38-6.12-11.14-12.97-21.87-19.23-32.94-4.36-7.72-8.37-15.66-13.64-22.8-5.51-7.47-16.46-7.22-21.32.24-7.45,11.43-14.59,23.11-21.04,35.13-4.95,9.23-10.37,18.18-15.25,27.45-5.27,10-11.35,19.59-16.55,29.66-3.91,7.59-4.63,8-12.92,6.09-9.1-2.1-17.94-5.16-26.95-7.51-12.51-3.26-24.88-6.99-37.42-10.12-12.32-3.07-24.33-7.31-36.9-9.39-12.96-2.15-21.02,7.52-16.88,19.91,2.4,7.16,4.24,14.51,6.19,21.81,2.24,8.4,4.25,16.86,6.5,25.26,3.8,14.18,7.72,28.33,11.58,42.49.64,2.34,1.06,4.76,1.92,7.01,1.29,3.36,2.66,6.81,1.88,10.34-.67,3.04-4.24,2.93-6.47,4.28-.24.15-.51.26-.76.4-8.77,5.16-17.51,10.37-26.31,15.48-5.89,3.42-11.9,6.64-17.77,10.08-9.01,5.28-17.95,10.67-26.92,16.02-6.76,4.03-13.69,7.75-20.22,12.2-6.83,4.65-8.08,17.01.79,22.48,8.66,5.33,17.17,10.91,25.98,15.97,9.9,5.69,19.88,11.24,29.68,17.13,12.47,7.49,25.03,14.88,37.93,21.57,4.51,2.34,4.86,4.81,3.76,8.77-2.87,10.3-5.73,20.6-8.53,30.92-4.28,15.79-8.48,31.61-12.75,47.41-2.12,7.85-4.48,15.63-6.42,23.52-.94,3.83-2.09,7.84.18,11.71,4.34,7.38,9.3,9.77,18.27,7.69,8.98-2.09,17.87-4.62,26.76-7.13,15.83-4.47,31.75-8.65,47.6-13.11,9.54-2.68,19.2-5.05,28.67-7.97,3.19-.98,4.76-.37,6.19,2.24,3.08,5.61,6.17,11.25,9.46,16.71,8.13,13.5,15.4,27.5,23.74,40.89,7.09,11.37,13.1,23.39,19.86,34.97,2.44,4.17,5.28,8.53,10.27,9.94,8.48,2.39,12.5-1.89,17.15-8.93,4.65-7.03,8.72-14.54,12.78-21.97,5.47-10.01,11.38-19.74,17.14-29.57,6.78-11.57,12.84-23.57,19.63-35.15,1.68-2.86,2.76-6.17,5.42-8.52,3.84-3.4,6.74.59,9.77,1.35,14.75,3.65,29.41,7.7,44,11.99,13.35,3.92,26.98,6.9,40.4,10.6,6.18,1.71,12.19,3.99,16.91,4.2,10.72.3,17.86-7.09,15.72-16.44-1.82-7.92-3.64-15.84-5.75-23.68-4.8-17.89-9.83-35.71-14.64-53.59-2.63-9.78-4.91-19.65-8.12-29.27-.57-1.7-1.77-4.05.4-5.51,2.81-1.89,5.78-3.6,8.85-5.03,6.46-3.01,12.54-6.78,18.55-10.48,10.67-6.57,21.56-12.76,32.36-19.08,12.93-7.58,26.09-14.76,38.59-23.07,5.85-3.89,7.03-15.83,1.57-20.11ZM229.55,241.45c0,3.89-3.15,7.05-7.05,7.05s-7.05-3.15-7.05-7.05,3.15-7.05,7.05-7.05,7.05,3.15,7.05,7.05ZM155.17,134.57c12.68,2.45,24.95,6.53,37.45,9.68,9.34,2.36,18.56,5.17,27.9,7.54,2.46.63,2.26,1.84,1.41,3.33-4.15,7.36-8.09,14.87-12.75,21.9-1.58,2.39-5.52,1.74-8.39,2.44-3.66,1.58-5.38-1.4-7.37-3.35l-30.19-30.18c-2.94-3.19-6.39-5.88-9.1-9.28-1.18-1.47-1.04-1.58,1.04-2.09ZM204.22,293.12c-3.89,0-7.05-3.15-7.05-7.05s3.15-7.05,7.05-7.05,7.05,3.15,7.05,7.05-3.15,7.05-7.05,7.05ZM211.26,316.6c0,3.89-3.15,7.05-7.05,7.05s-7.05-3.15-7.05-7.05,3.15-7.05,7.05-7.05,7.05,3.15,7.05,7.05ZM138.47,149.67c1.36,2.08,3.54,3.64,5.4,5.51,8.04,8.1,15.99,16.28,24.02,24.38,4.77,4.81,9.7,9.47,14.42,14.34.78.8,2.34,1.96,1.55,3.28-2.41,4.02-3.52,9.04-7.82,11.67-5.93,3.62-12.2,6.7-18.01,10.5-2.43,1.59-2.92.91-3.38-1.22-1.22-5.71-2.99-11.29-4.31-16.94-3.35-14.32-8.17-28.24-11.02-42.68-.46-2.33-1.66-4.51-2.34-6.81-.23-.79-.6-2.15,1.48-2.01ZM165.79,255.53c-.3.79-1.43.77-1.69-.04l-4.71-14.4c-.13-.39.03-.82.37-1.04l13.26-8.34c.73-.46,1.62.27,1.31,1.07l-8.56,22.75ZM171.94,367.13l-13.51-6.86c-.37-.19-.56-.6-.47-1l3.48-15.28c.19-.84,1.33-.95,1.69-.17l10.03,22.14c.35.77-.47,1.55-1.22,1.17ZM83.1,286.88c9.43-5.32,18.75-10.85,28.16-16.21,6.14-3.49,12.15-7.28,18.51-10.41,3.53-1.74,7.09-3.56,10.27-5.86,2.26-1.64,3.16-.83,3.69,1.14,2.11,7.84,4.28,15.67,6.01,23.6.99,4.53-2.97,7.48-4.84,11.01-.99,1.87-3.72.88-5.66.89-9.03.07-18.07.03-27.11.03-9.32,0-18.64.05-27.97-.05-1.39-.01-3.57,1-4.04-1.1-.41-1.84,1.58-2.26,2.98-3.05ZM118.65,335.22c-6.42-3.35-12.46-7.28-18.76-10.79-6.69-3.72-13.59-7.18-19.99-11.88,1.74-1.3,3.21-.81,4.57-.81,18.51-.04,37.01-.03,55.52-.03,5.43,0,10.57,6.07,9.65,11.6-1.3,7.89-4.75,15.25-5.92,23.19-.35,2.37-1.71,1.94-3.42,1.1-7.51-3.65-14.3-8.56-21.65-12.39ZM138.2,452.37c-.35-.14-.7-.28-1.05-.42-.06-5.14,2.61-9.7,3.68-14.6,2.76-12.68,6.61-25.09,9.76-37.69,1.24-4.95,2.7-9.91,3.81-14.91.69-3.09,1.57-3.79,4.55-1.92,6.21,3.9,12.65,7.43,19.05,11.01,4.29,2.4,6.15,12.04,2.74,15.48-11.2,11.29-22.49,22.5-33.72,33.77-3.01,3.03-5.89,6.18-8.84,9.27ZM219.51,450.4c-13.04,3.31-25.84,7.53-38.91,10.71-9.2,2.24-18.15,5.6-28.64,7.11,3.88-5.68,8.54-9.13,12.41-13.3,5.04-5.43,10.47-10.51,15.71-15.76,5.83-5.84,11.64-11.7,17.45-17.56,1.03-1.04,2.13-.91,2.98.02.73.8,1.53,1.34,2.53,1.47,5.78.76,8.39,4.91,10.79,9.58,2.25,4.39,4.97,8.55,7.51,12.79,1.45,2.43,2.21,3.91-1.83,4.93ZM223.15,367.48c-3.89,0-7.05-3.15-7.05-7.05s3.15-7.05,7.05-7.05,7.05,3.15,7.05,7.05-3.15,7.05-7.05,7.05ZM294.49,201.49c0,3.89-3.15,7.05-7.05,7.05s-7.05-3.15-7.05-7.05,3.15-7.05,7.05-7.05,7.05,3.15,7.05,7.05ZM293.41,270.62c-1.71.72-3.43,1.43-5.15,2.14-1.19.49-1.51.42-2-.76-2.15-5.18-4.31-10.36-6.37-15.57-1.64-4.16-3.17-8.37-3.87-12.83-.13-.85-.19-1.71-.33-2.97.16-.48.43-1.3.7-2.12.78.43,1.72.71,2.32,1.32,2.36,2.37,3.99,5.27,5.44,8.25,3.35,6.91,6.62,13.85,9.92,20.78.46.97.32,1.34-.67,1.76ZM293.54,339.31c-3.32,8.58-6.79,17.08-11.31,25.12-1.27,2.25-2.8,4.32-4.9,5.9h-.83c-.87-2.16-.64-4.39-.04-6.5,1.36-4.72,2.87-9.41,4.43-14.07,1.49-4.44,3.13-8.82,4.7-13.23.46-1.3.78-1.44,2.07-.9,1.72.72,3.42,1.46,5.15,2.15.75.3,1.01.76.72,1.53ZM256.55,136.39c3.3-5.9,6.53-11.84,9.95-17.67,3.63-6.18,7.7-12.11,11.13-18.39,4.32-7.93,8.9-15.69,13.68-23.69,1.26,1.29.87,2.34.87,3.26.03,19.24.03,38.48.01,57.73,0,4.43-6.77,9.48-11.23,8.39-7.61-1.85-15.19-3.82-22.81-5.6-2.76-.64-2.69-2.07-1.59-4.03ZM243.22,332.13c-.88.15-1.78.21-3.07.36-.48-.17-1.3-.45-2.11-.73.44-.78.73-1.7,1.33-2.31,2.14-2.19,4.78-3.73,7.51-5.06,7.18-3.49,14.4-6.9,21.6-10.35.85-.41,1.34-.14,1.68.72.69,1.76,1.41,3.51,2.18,5.24.41.92.22,1.49-.72,1.88-5.35,2.18-10.69,4.41-16.06,6.54-4,1.59-8.07,3-12.34,3.71ZM251.32,381.8c0,3.89-3.15,7.05-7.05,7.05s-7.05-3.15-7.05-7.05,3.15-7.05,7.05-7.05,7.05,3.15,7.05,7.05ZM272.51,288.21c-.71,1.72-1.44,3.43-2.15,5.14-.28.69-.72.97-1.46.68-9.01-3.52-18.01-7.06-26.34-12.06-1.87-1.12-3.57-2.46-4.75-4.36v-.62c2.52-.97,5.08-.56,7.5.16,5.1,1.53,10.14,3.27,15.19,4.99,3.71,1.26,7.4,2.61,11.09,3.93,1.37.49,1.49.77.92,2.14ZM237.94,171.18l6.61-13.32c.18-.36.58-.55.97-.47l15.02,3.28c.82.18.95,1.3.18,1.66l-21.63,10.03c-.75.35-1.53-.44-1.16-1.19ZM243.87,214.03c3.89,0,7.05,3.15,7.05,7.05s-3.15,7.05-7.05,7.05-7.05-3.15-7.05-7.05,3.15-7.05,7.05-7.05ZM245.16,449.27l-8.46-13.19c-.46-.72.26-1.62,1.06-1.32l22.82,8.36c.79.29.78,1.42-.02,1.69l-14.36,4.83c-.39.13-.82-.02-1.04-.37ZM291.66,524.87c-4.14-3.54-5.65-8.41-8.16-12.56-5.67-9.39-10.9-19.05-16.66-28.4-3.62-5.88-6.87-11.99-10.22-18.04-1.2-2.17-1.13-3.37,1.85-4.56,6.77-2.7,14.15-2.76,20.87-5.73,5.36-2.36,12.83,3.46,12.84,9.3,0,18.64,0,37.28-.01,55.93,0,1.3.34,2.72-.51,4.05ZM288.72,406.96c-3.89,0-7.05-3.15-7.05-7.05s3.15-7.05,7.05-7.05,7.05,3.15,7.05,7.05-3.15,7.05-7.05,7.05ZM361.48,157.79c.38-.13.8.02,1.02.36l8.3,12.94c.45.71-.25,1.59-1.04,1.3l-22.39-8.2c-.78-.29-.76-1.39.02-1.66l14.09-4.74ZM364.47,331.93c-4.55-.72-8.82-2.38-13.12-3.92-5.11-1.83-10.23-3.65-15.35-5.48-1.25-.45-1.38-.75-.87-1.99.67-1.62,1.35-3.24,2.02-4.86.54-1.3.78-1.46,2.1-.9,6.27,2.65,12.58,5.22,18.76,8.06,3.11,1.43,6.03,3.29,8.92,5.15,1.14.74,1.95,1.99,2.91,3.01v.62c-1.75.85-3.57.59-5.37.3ZM368.05,381.8c0,3.89-3.15,7.05-7.05,7.05s-7.05-3.15-7.05-7.05,3.15-7.05,7.05-7.05,7.05,3.15,7.05,7.05ZM364.61,276.5c.59-.17,1.23-.15,1.84-.22,0-.03,0-.05.01-.08.78.07,1.58.09,2.35.22.93.16,1.17.61.62,1.36-.67.9-1.38,1.88-2.31,2.47-2.98,1.9-5.98,3.81-9.14,5.4-6.12,3.06-12.36,5.91-18.55,8.84-1.16.55-1.48.42-1.96-.74-.7-1.68-1.4-3.37-2.09-5.06-.49-1.19-.42-1.46.81-1.97,5.6-2.3,11.17-4.7,16.85-6.79,3.76-1.39,7.69-2.32,11.56-3.43ZM354.97,221.07c0-3.89,3.15-7.05,7.05-7.05s7.05,3.15,7.05,7.05-3.15,7.05-7.05,7.05-7.05-3.15-7.05-7.05ZM312.45,74.9c4.54,3.21,5.58,7.62,7.72,11.12,6.98,11.44,13.14,23.37,19.77,35.03,3.07,5.41,6.49,10.62,9.76,15.91.97,1.56.9,2.52-1.17,3.06-8.27,2.14-16.48,4.56-24.79,6.54-3.9.93-11.29-5.8-11.29-9.83,0-19.06,0-38.12,0-57.19v-4.65ZM314.54,337.89c1.62-.67,3.25-1.34,4.87-2,1.25-.51,1.52-.45,2.05.82,2.21,5.34,4.42,10.69,6.54,16.06,1.56,3.94,2.94,7.94,3.64,12.14.15.88.21,1.78.31,2.65-.06.54-.1,1.05-.19,1.56-.2,1.14-.66,1.38-1.6.67-.84-.64-1.73-1.34-2.28-2.21-1.87-2.96-3.78-5.92-5.34-9.05-3.06-6.12-5.9-12.36-8.82-18.55-.6-1.27-.49-1.54.82-2.08ZM314.13,269.39c3.44-8.89,6.99-17.74,11.83-25.99,1.17-1.99,2.56-3.84,4.56-5.11h.62c1,2.18.66,4.45.05,6.58-1.29,4.56-2.75,9.08-4.26,13.58-1.55,4.6-3.24,9.14-4.87,13.71-.44,1.22-.74,1.38-1.9.91-1.78-.73-3.55-1.49-5.34-2.22-.69-.28-.98-.71-.7-1.45ZM317.54,194.45c3.89,0,7.05,3.15,7.05,7.05s-3.15,7.05-7.05,7.05-7.05-3.15-7.05-7.05,3.15-7.05,7.05-7.05ZM310.96,399.92c0-3.89,3.15-7.05,7.05-7.05s7.05,3.15,7.05,7.05-3.15,7.05-7.05,7.05-7.05-3.15-7.05-7.05ZM349.17,465.42c-6.74,11.61-13.04,23.47-19.92,34.99-4.39,7.35-8.74,14.71-12.83,22.23-.73,1.35-2.05,1.79-3.47,2.92-.23-1.27-.47-1.96-.48-2.66-.02-19.8,0-39.59-.03-59.39,0-2.39,1.15-3.42,3.15-4.86,5.05-3.64,9.71-3.32,15.28-1.42,5.48,1.87,11.3,2.73,16.86,4.57,2.51.83,2.79,1.29,1.43,3.63ZM372.13,435.99l-6.74,13.57c-.18.37-.59.56-.99.48l-15.31-3.35c-.84-.18-.96-1.33-.19-1.69l22.05-10.23c.77-.36,1.55.45,1.18,1.21ZM468.09,149.91c.04,7.31-3.09,13.27-4.62,19.57-3.98,16.36-8.6,32.56-12.91,48.84-.56,2.11-1.04,2.46-3.11,1.18-6.23-3.85-12.54-7.61-19.07-10.92-2.52-1.28-3.13-3.19-4.29-5.34-3.99-7.42,1.09-11.31,5.49-15.59,7.97-7.75,16.11-15.35,23.86-23.32,4.67-4.8,9.16-9.74,14.64-14.43ZM447.39,257.22c-.18.82-1.3.95-1.66.18l-10.03-21.63c-.35-.75.44-1.53,1.19-1.16l13.32,6.61c.36.18.55.58.47.97l-3.28,15.02ZM449.92,359.17l-12.94,8.3c-.71.45-1.59-.25-1.3-1.04l8.2-22.39c.29-.78,1.39-.76,1.66.02l4.74,14.09c.13.38-.02.8-.36,1.02ZM384.99,151.9c10.04-3.09,20.26-5.51,30.38-8.28,12.08-3.3,24.09-6.84,36.3-9.64.38-.09.79-.01,1.19-.01.23.29.46.59.68.88-4.74,4.64-9.54,9.23-14.21,13.94-5.02,5.06-9.83,10.35-14.92,15.33-4.7,4.6-9.39,9.2-13.95,13.95-3.44,3.58-13.02,1.14-15.45-3.29-3.59-6.57-7.34-13.05-11.19-19.47-1.14-1.91-1.46-2.62,1.16-3.43ZM401.14,293.04c-3.89,0-7.05-3.15-7.05-7.05s3.15-7.05,7.05-7.05,7.05,3.15,7.05,7.05-3.15,7.05-7.05,7.05ZM408.19,316.34c0,3.89-3.15,7.05-7.05,7.05s-7.05-3.15-7.05-7.05,3.15-7.05,7.05-7.05,7.05,3.15,7.05,7.05ZM382.58,234.41c3.89,0,7.05,3.15,7.05,7.05s-3.15,7.05-7.05,7.05-7.05-3.15-7.05-7.05,3.15-7.05,7.05-7.05ZM375.32,360.41c0-3.89,3.15-7.05,7.05-7.05s7.05,3.15,7.05,7.05-3.15,7.05-7.05,7.05-7.05-3.15-7.05-7.05ZM451.39,468.63c-3.18-.87-6.45-1.46-9.58-2.49-15.29-5-30.64-9.74-46.34-13.36-3.33-.77-6.52-1.84-10-1.99-3.14-.13-3.96-1.99-2.21-4.54,3.73-5.43,6.69-11.32,10.6-16.66,2.78-3.79,6.22-6.36,10.52-7.72,2.59-.82,4.78,1.36,6.35,2.75,5.22,4.65,10.29,9.48,14.75,14.95,2.99,3.65,6.82,6.61,10.2,9.96,5.87,5.81,11.68,11.67,17.5,17.52.2.2.35.45.53.68-.39,1.33-1.25,1.19-2.33.9ZM467.52,450.83c-1.19.38-2.24-.13-3.1-1-3.27-3.28-6.53-6.58-9.8-9.85-6.63-6.63-13.27-13.24-19.9-19.86-3.38-3.38-6.78-6.75-10.13-10.15-2.15-2.18-2.88-4.34-1.19-7.47,1.75-3.25,1.05-7.13,5.73-9.54,5.92-3.05,11.91-6.33,17.39-10.3,2.3-1.66,3.44-1.08,4.12,1.69,3.06,12.45,6.99,24.66,9.93,37.15,1.94,8.28,4.63,16.38,6.96,24.57.27.96.41,1.96.6,2.94.11.72.23,1.56-.6,1.82ZM513.4,320.13c-9.24,5.92-18.89,11.19-28.41,16.67-5.9,3.39-11.85,6.69-17.8,9.99-2.55,1.41-3.84,1.29-5.17-2.1-2.63-6.68-2.75-13.93-5.67-20.54-2.16-4.88,3.72-12.42,9.03-12.43,18.65-.01,37.29,0,55.94,0h4.36c-3.59,4.87-8.44,5.95-12.27,8.41ZM526.66,291.08c-4.56,0-9.13,0-13.69,0-15.79,0-31.57-.02-47.36.02-2.88,0-4.47-.8-6.39-3.53-3.67-5.23-3.55-9.54-1.34-15.32,2.26-5.92,2.91-12.49,5.64-18.92,21.18,12.17,42.4,24.37,63.62,36.57-.16.39-.32.79-.48,1.18Z"/>
      <path class="cls-2" d="M1571.53,260.31"/>
    </g>
  </g>
</svg>